<svg xmlns="http://www.w3.org/2000/svg" viewBox="0 0 24 24" fill="none" stroke="currentColor" stroke-width="2" stroke-linecap="round" stroke-linejoin="round">
  <!-- Folder outline -->
  <path d="M22 19a2 2 0 0 1-2 2H4a2 2 0 0 1-2-2V5a2 2 0 0 1 2-2h5l2 3h9a2 2 0 0 1 2 2z"/>
  <!-- Center pin (larger, foreground) — teardrop: quarter-arc top→right, curves to tip, quarter-arc left→top -->
  <path d="M12 7.8 A2.2 2.2 0 0 1 14.2 10 Q14.2 13 12 18 Q9.8 13 9.8 10 A2.2 2.2 0 0 0 12 7.8 Z" fill="currentColor" stroke="none"/>
  <!-- Left pin (smaller) -->
  <path d="M7 9.7 A1.8 1.8 0 0 1 8.8 11.5 Q8.8 13.5 7 17 Q5.2 13.5 5.2 11.5 A1.8 1.8 0 0 0 7 9.7 Z" fill="currentColor" stroke="none"/>
  <!-- Right pin (smaller, mirrored) -->
  <path d="M17 9.7 A1.8 1.8 0 0 1 18.8 11.5 Q18.8 13.5 17 17 Q15.2 13.5 15.2 11.5 A1.8 1.8 0 0 0 17 9.7 Z" fill="currentColor" stroke="none"/>
</svg>
