<svg width="84" height="75" viewBox="0 0 84 75" fill="none" xmlns="http://www.w3.org/2000/svg">
<path d="M4.16663 19.2529C4.16663 13.9724 4.16663 11.3322 5.07492 9.31533C5.87383 7.5412 7.14867 6.09882 8.71671 5.1949C10.4993 4.16724 12.8329 4.16724 17.5 4.16724H31.9771C34.0154 4.16724 35.0345 4.16724 35.9937 4.42775C36.8437 4.6587 37.6566 5.03966 38.4025 5.55663C39.2433 6.13969 39.9641 6.95503 41.4054 8.58575L41.9279 9.1773C43.3691 10.808 44.09 11.6233 44.9308 12.2064C45.6766 12.7234 46.4895 13.1043 47.3395 13.3353C48.2987 13.5958 49.3179 13.5958 51.3562 13.5958H65.8333C70.5004 13.5958 72.8341 13.5958 74.6166 14.6235C76.1845 15.5274 77.4595 16.9698 78.2583 18.7439C79.1666 20.7608 79.1666 23.401 79.1666 28.6815V55.0815C79.1666 60.362 79.1666 63.0025 78.2583 65.0192C77.4595 66.7932 76.1845 68.2358 74.6166 69.1395C72.8341 70.1672 70.5004 70.1672 65.8333 70.1672H17.5C12.8328 70.1672 10.4993 70.1672 8.71671 69.1395C7.14867 68.2358 5.87383 66.7932 5.07492 65.0192C4.16663 63.0025 4.16663 60.362 4.16663 55.0815V19.2529Z" stroke="currentColor" stroke-width="8.33333" stroke-linecap="round" stroke-linejoin="round"/>
<path d="M57.5474 32.7628C61.837 33.3435 65.142 36.9768 65.1421 41.3741C65.1418 45.8939 59.2943 55.0005 56.7729 58.9542C56.5727 59.2679 56.1144 59.2654 55.9165 58.9503C54.2395 56.2781 52.2515 53.1927 50.6323 50.1974C51.577 48.4848 52.4905 46.7448 53.3296 45.0275C54.1376 45.7297 55.1902 46.1554 56.3423 46.1554C58.8878 46.1553 60.9515 44.0816 60.9517 41.5236C60.9516 39.075 59.0608 37.0708 56.6665 36.9034C57.1247 35.4063 57.4324 34.0103 57.5474 32.7628Z" fill="currentColor"/>
<path d="M26.7893 32.7628C22.4997 33.3435 19.1947 36.9768 19.1946 41.3741C19.1949 45.8939 25.0424 55.0005 27.5637 58.9542C27.7639 59.2679 28.2222 59.2654 28.4202 58.9503C30.0972 56.2781 32.0851 53.1927 33.7043 50.1974C32.7597 48.4848 31.8462 46.7448 31.0071 45.0275C30.199 45.7297 29.1465 46.1554 27.9944 46.1554C25.4488 46.1553 23.3852 44.0816 23.385 41.5236C23.3851 39.075 25.2759 37.0708 27.6702 36.9034C27.212 35.4063 26.9043 34.0103 26.7893 32.7628Z" fill="currentColor"/>
<path d="M42.1685 20.0006C49.514 20.0007 55.469 25.8833 55.4692 33.1403C55.4692 40.1083 46.2723 54.2897 42.5962 60.0612C42.3962 60.3752 41.9403 60.3699 41.7427 60.0543C36.4333 51.5764 28.8677 40.2064 28.8677 33.1403C28.8679 25.8833 34.8229 20.0006 42.1685 20.0006ZM42.1685 26.3649C38.3207 26.3649 35.2017 29.5001 35.2017 33.3668C35.2019 37.2334 38.3208 40.3678 42.1685 40.3678C46.016 40.3677 49.1351 37.2333 49.1353 33.3668C49.1353 29.5002 46.0161 26.365 42.1685 26.3649Z" fill="currentColor"/>
</svg>
