<svg xmlns="http://www.w3.org/2000/svg" class="detail-icon-classification" viewBox="0 0 26 24" fill="none" stroke="currentColor" stroke-width="2" stroke-linecap="round" stroke-linejoin="round">
  <path d="M2 5.5 C2 4.1 3.1 3 4.5 3 L18 3 L23 12 L18 21 L4.5 21 C3.1 21 2 19.9 2 18.5 Z"/>
  <svg x="4" y="4.5" width="12" height="14" viewBox="0 0 256 244">
    <g transform="translate(0,244) scale(0.1,-0.1)" fill="currentColor" stroke="currentColor" stroke-width="20" stroke-linejoin="round" stroke-linecap="round">
      <path d="M2145 2220 c-344 -42 -648 -174 -780 -339 -61 -76 -57 -71 -81 -121
-43 -89 -49 -122 -49 -255 0 -148 19 -226 82 -348 l36 -68 -26 -82 c-32 -103
-48 -176 -61 -297 l-11 -95 -29 0 -29 0 -18 104 c-21 122 -50 221 -90 309
l-28 63 23 49 c55 115 61 259 14 361 -39 85 -124 163 -233 215 -49 23 -101 44
-115 47 -157 35 -223 47 -268 47 -51 0 -54 -1 -68 -35 -10 -24 -14 -74 -14
-169 0 -205 36 -344 114 -439 87 -107 195 -151 355 -146 l94 4 23 -45 c52
-102 107 -358 81 -377 -7 -5 -38 -17 -71 -27 -32 -10 -90 -33 -130 -51 -39
-18 -96 -42 -126 -55 -30 -12 -66 -27 -80 -32 -14 -6 -70 -13 -125 -16 -70 -3
-105 -9 -117 -20 -20 -17 -23 -44 -8 -73 10 -17 22 -19 111 -19 123 0 168 12
354 95 77 35 176 71 219 80 147 33 291 9 483 -81 191 -89 214 -94 478 -94 212
0 233 2 248 18 21 23 21 41 1 70 -15 22 -19 22 -235 22 -247 0 -270 4 -450 89
-97 45 -195 81 -221 81 -9 0 -19 4 -22 9 -10 15 14 211 34 286 38 143 42 150
75 147 17 -1 80 -5 141 -8 359 -20 589 183 670 591 14 70 18 139 18 310 0 198
-2 224 -20 260 -21 45 -37 49 -149 35z
m56 -210 c8 -117 -5 -321 -26 -415 -34 -149 -97 -271 -178 -347 -95 -88 -293 -137
-442 -109 -52 9 -50 25 12 128 76 127 120 182 229 291 110 108 122 132 84 167
-13 11 -27 15 -43 11 -35 -8 -167 -135 -242 -231 -67 -86 -165 -237 -165 -256
0 -6 -8 -9 -17 -7 -12 2 -25 27 -40 77 -100 320 44 567 407 699 117 42 340 93
390 89 24 -2 25 -5 31 -97z
m-1574 -334 c148 -32 284 -99 337 -168 33 -44 56 -110 56 -160 0 -44 -19 -128
-29 -128 -3 0 -32 33 -64 74 -76 96 -180 196 -205 196 -19 0 -62 -43 -62 -62
0 -4 39 -50 88 -101 99 -106 147 -171 137 -186 -9 -16 -81 -13 -147 5 -148 42
-228 200 -228 449 0 110 -6 106 117 81z"/>
    </g>
  </svg>
</svg>
