<svg width="44" height="40" viewBox="0 0 44 40" fill="none" xmlns="http://www.w3.org/2000/svg">
<path d="M34.6355 10.5029C38.1836 10.9804 40.9176 13.9707 40.9177 17.5898C40.9175 21.2688 36.1862 28.6401 34.0652 31.9492C33.8668 32.2586 33.4148 32.256 33.2185 31.9453C31.846 29.7712 30.2348 27.2743 28.9177 24.8496C29.6986 23.4406 30.4545 22.0095 31.1482 20.5967C31.8163 21.1745 32.6867 21.5243 33.6394 21.5244C35.7447 21.5244 37.4517 19.8181 37.4519 17.7129C37.4517 15.6975 35.8875 14.0474 33.907 13.9102C34.2858 12.6781 34.5404 11.5295 34.6355 10.5029Z" fill="currentColor"/>
<path d="M9.19995 10.5029C5.65188 10.9804 2.91789 13.9707 2.91772 17.5898C2.91797 21.2688 7.6492 28.6401 9.77026 31.9492C9.96868 32.2586 10.4206 32.256 10.6169 31.9453C11.9894 29.7712 13.6007 27.2743 14.9177 24.8496C14.1368 23.4406 13.3809 22.0095 12.6873 20.5967C12.0191 21.1745 11.1487 21.5243 10.196 21.5244C8.09077 21.5244 6.38376 19.8181 6.38354 17.7129C6.38372 15.6975 7.94794 14.0474 9.92847 13.9102C9.54961 12.6781 9.29503 11.5295 9.19995 10.5029Z" fill="currentColor"/>
<path d="M4.08544 26.5029C4.26784 26.5029 4.43564 26.6023 4.52414 26.7618C4.70751 27.0922 4.89342 27.4213 5.08075 27.7479C5.27304 28.0831 5.03232 28.5029 4.64588 28.5029H4.06207C3.81529 28.5029 3.60542 28.683 3.56789 28.9269L2.33699 36.9269C2.29038 37.2298 2.52473 37.5029 2.83117 37.5029H40.9926C41.2997 37.5029 41.5343 37.2286 41.4865 36.9252L40.2269 28.9252C40.1887 28.682 39.9791 28.5029 39.733 28.5029H38.5104C38.1246 28.5029 37.8836 28.084 38.0744 27.7486C38.26 27.4225 38.4445 27.0933 38.6271 26.7624C38.7154 26.6026 38.8834 26.5029 39.066 26.5029H41.443C41.6891 26.5029 41.8986 26.682 41.9369 26.9252L43.8263 38.9252C43.8741 39.2286 43.6396 39.5029 43.3324 39.5029H0.500107C0.193665 39.5029 -0.0406753 39.2298 0.00592147 38.9269L1.85208 26.9269C1.8896 26.683 2.09948 26.5029 2.34626 26.5029H4.08544ZM16.6623 27.7397C16.8656 28.0739 16.6257 28.5029 16.2345 28.5029H15.2215C14.8328 28.5029 14.5923 28.0786 14.7889 27.7432C14.9955 27.3907 15.1987 27.0381 15.3977 26.6865C15.4619 26.5732 15.5818 26.5029 15.712 26.5029C15.8387 26.5029 15.9561 26.5695 16.0213 26.6782C16.2339 27.0328 16.4477 27.3868 16.6623 27.7397ZM28.121 26.5029C28.2636 26.5029 28.395 26.5799 28.4651 26.7041C28.6609 27.0507 28.8606 27.3978 29.0632 27.7446C29.259 28.0797 29.0185 28.5029 28.6303 28.5029H27.5904C27.2011 28.5029 26.961 28.0777 27.1608 27.7436C27.3668 27.3991 27.5737 27.0504 27.7805 26.6981C27.8514 26.5773 27.981 26.5029 28.121 26.5029Z" fill="currentColor"/>
<path d="M21.9177 0C27.9927 0 32.9175 4.84121 32.9177 10.8135C32.9177 16.505 25.4253 28.0449 22.3406 32.8613C22.1422 33.1707 21.6917 33.1635 21.4958 32.8525C17.1086 25.8874 10.9177 16.598 10.9177 10.8135C10.918 4.84121 15.8427 1.58346e-07 21.9177 0ZM21.9177 5.23828C18.7355 5.23828 16.156 7.81779 16.156 11C16.1561 14.1821 18.7356 16.7617 21.9177 16.7617C25.0999 16.7617 27.6793 14.1821 27.6794 11C27.6794 7.81779 25.0999 5.23828 21.9177 5.23828Z" fill="currentColor"/>
</svg>
